<svg xmlns="http://www.w3.org/2000/svg" xmlns:xlink="http://www.w3.org/1999/xlink" viewBox="0 0 291.42 177.67"><defs><style>.cls-1{fill:#eff90c;}.cls-10,.cls-12,.cls-2,.cls-3,.cls-4,.cls-5,.cls-6,.cls-7,.cls-8{fill:none;stroke-miterlimit:10;}.cls-2,.cls-3,.cls-6{stroke:#eff90c;}.cls-3{stroke-width:0.2px;}.cls-10,.cls-4,.cls-8{stroke:#fff;}.cls-4,.cls-5{stroke-width:5px;}.cls-12,.cls-5,.cls-7{stroke:#0000c2;}.cls-10,.cls-6,.cls-7{stroke-width:3px;}.cls-8{stroke-width:4px;}.cls-9{fill:#fff;}.cls-11{fill:#0000c2;}.cls-12{stroke-width:2px;}.cls-13{fill:#edff00;}</style></defs><title>des1_final</title><g id="Layer_7" data-name="Layer 7"><circle cx="144.64" cy="89.38" r="85.78"/></g><g id="Layer_12" data-name="Layer 12"><path class="cls-1" d="M118.67,65.67v36.17a.5.5,0,0,0,1,0V65.67a.5.5,0,0,0-1,0Z" transform="translate(-15.98 -1.72)"/><path class="cls-1" d="M115.67,67.67V141.5a.5.5,0,0,0,1,0V67.67a.5.5,0,0,0-1,0Z" transform="translate(-15.98 -1.72)"/><path class="cls-1" d="M112.5,69.5v71a.5.5,0,0,0,1,0v-71a.5.5,0,0,0-1,0Z" transform="translate(-15.98 -1.72)"/><path class="cls-1" d="M107.63,71.38v65.5a.5.5,0,0,0,1,0V71.38a.5.5,0,0,0-1,0Z" transform="translate(-15.98 -1.72)"/><path class="cls-1" d="M104.75,73v62.63a.5.5,0,0,0,1,0V73a.5.5,0,0,0-1,0Z" transform="translate(-15.98 -1.72)"/><path class="cls-1" d="M99.62,76.13v36.63a.5.5,0,0,0,1,0V76.13a.5.5,0,0,0-1,0Z" transform="translate(-15.98 -1.72)"/><path class="cls-1" d="M96.5,77.5v33.38a.5.5,0,0,0,1,0V77.5a.5.5,0,0,0-1,0Z" transform="translate(-15.98 -1.72)"/><path class="cls-1" d="M91.37,79.38V109.5a.5.5,0,0,0,1,0V79.38a.5.5,0,0,0-1,0Z" transform="translate(-15.98 -1.72)"/><path class="cls-1" d="M87.5,81.5v25.13a.5.5,0,0,0,1,0V81.5a.5.5,0,0,0-1,0Z" transform="translate(-15.98 -1.72)"/><path class="cls-1" d="M123,64.63v36.5a.5.5,0,0,0,1,0V64.63a.5.5,0,0,0-1,0Z" transform="translate(-15.98 -1.72)"/><path class="cls-1" d="M127,65.5v35.63a.5.5,0,0,0,1,0V65.5a.5.5,0,0,0-1,0Z" transform="translate(-15.98 -1.72)"/><path class="cls-1" d="M131,72.13v29a.5.5,0,0,0,1,0v-29a.5.5,0,0,0-1,0Z" transform="translate(-15.98 -1.72)"/><path class="cls-1" d="M135,73V94.69a.5.5,0,0,0,1,0V73a.5.5,0,0,0-1,0Z" transform="translate(-15.98 -1.72)"/><path class="cls-1" d="M142.5,45.13v15.5a.5.5,0,0,0,1,0V45.13a.5.5,0,0,0-1,0Z" transform="translate(-15.98 -1.72)"/><path class="cls-1" d="M148.25,45.13V59.75a.5.5,0,0,0,1,0V45.13a.5.5,0,0,0-1,0Z" transform="translate(-15.98 -1.72)"/><path class="cls-1" d="M136.5,16.5V39.31a.5.5,0,0,0,1,0V16.5a.5.5,0,0,0-1,0Z" transform="translate(-15.98 -1.72)"/><path class="cls-1" d="M133.5,17.75V59a.5.5,0,0,0,1,0V17.75a.5.5,0,0,0-1,0Z" transform="translate(-15.98 -1.72)"/><path class="cls-1" d="M128.63,19.5V59a.5.5,0,0,0,1,0V19.5a.5.5,0,0,0-1,0Z" transform="translate(-15.98 -1.72)"/><path class="cls-1" d="M124.75,21.5V53.38a.5.5,0,0,0,1,0V21.5a.5.5,0,0,0-1,0Z" transform="translate(-15.98 -1.72)"/><path class="cls-1" d="M120.25,24.38V44.62a.5.5,0,0,0,1,0V24.38a.5.5,0,0,0-1,0Z" transform="translate(-15.98 -1.72)"/><path class="cls-1" d="M112.5,29.75V59.5a.5.5,0,0,0,1,0V29.75a.5.5,0,0,0-1,0Z" transform="translate(-15.98 -1.72)"/><path class="cls-1" d="M106.75,33.88V45.78a.5.5,0,0,0,1,0V33.88a.5.5,0,0,0-1,0Z" transform="translate(-15.98 -1.72)"/><path class="cls-1" d="M153.38,13V28.19a.5.5,0,0,0,1,0V13a.5.5,0,0,0-1,0Z" transform="translate(-15.98 -1.72)"/><path class="cls-1" d="M156.88,13V29.75a.5.5,0,0,0,1,0V13a.5.5,0,0,0-1,0Z" transform="translate(-15.98 -1.72)"/><path class="cls-1" d="M161.5,13V28.88a.5.5,0,0,0,1,0V13a.5.5,0,0,0-1,0Z" transform="translate(-15.98 -1.72)"/><path class="cls-1" d="M165.38,13V28.88a.5.5,0,0,0,1,0V13a.5.5,0,0,0-1,0Z" transform="translate(-15.98 -1.72)"/><path class="cls-1" d="M169.75,13V29.75a.5.5,0,0,0,1,0V13a.5.5,0,0,0-1,0Z" transform="translate(-15.98 -1.72)"/><path class="cls-1" d="M174.88,13.63V22.5a.5.5,0,0,0,1,0V13.63a.5.5,0,0,0-1,0Z" transform="translate(-15.98 -1.72)"/><path class="cls-1" d="M181.25,15.13v15.5a.5.5,0,0,0,1,0V15.13a.5.5,0,0,0-1,0Z" transform="translate(-15.98 -1.72)"/><path class="cls-1" d="M187,16.5V33a.5.5,0,0,0,1,0V16.5a.5.5,0,0,0-1,0Z" transform="translate(-15.98 -1.72)"/><path class="cls-1" d="M201.38,22V52a.5.5,0,0,0,1,0V22a.5.5,0,0,0-1,0Z" transform="translate(-15.98 -1.72)"/><path class="cls-1" d="M205.38,24.28V52a.5.5,0,0,0,1,0V24.28a.5.5,0,0,0-1,0Z" transform="translate(-15.98 -1.72)"/><path class="cls-1" d="M223.13,40.63v8.09a.5.5,0,0,0,1,0V40.63a.5.5,0,0,0-1,0Z" transform="translate(-15.98 -1.72)"/><path class="cls-1" d="M232.13,54.25V92.92a.5.5,0,0,0,1,0V54.25a.5.5,0,0,0-1,0Z" transform="translate(-15.98 -1.72)"/><path class="cls-1" d="M235,121.75V112.1a.5.5,0,0,0-1,0v9.65a.5.5,0,0,0,1,0Z" transform="translate(-15.98 -1.72)"/><path class="cls-1" d="M226.13,72.23v32a.5.5,0,0,0,1,0v-32a.5.5,0,0,0-1,0Z" transform="translate(-15.98 -1.72)"/><path class="cls-1" d="M219.63,64.13v22.7a.5.5,0,0,0,1,0V64.13a.5.5,0,0,0-1,0Z" transform="translate(-15.98 -1.72)"/><path class="cls-1" d="M215,56.88v36.5a.5.5,0,0,0,1,0V56.88a.5.5,0,0,0-1,0Z" transform="translate(-15.98 -1.72)"/><path class="cls-1" d="M210.88,57.5V93.38a.5.5,0,0,0,1,0V57.5a.5.5,0,0,0-1,0Z" transform="translate(-15.98 -1.72)"/><path class="cls-1" d="M207,57.65V93.73a.5.5,0,0,0,1,0V57.65a.5.5,0,0,0-1,0Z" transform="translate(-15.98 -1.72)"/><path class="cls-1" d="M202.63,57.46V93.38a.5.5,0,0,0,1,0V57.46a.5.5,0,0,0-1,0Z" transform="translate(-15.98 -1.72)"/><path class="cls-1" d="M199.25,57.13V85.25a.5.5,0,0,0,1,0V57.13a.5.5,0,0,0-1,0Z" transform="translate(-15.98 -1.72)"/><path class="cls-1" d="M194.13,43.46V52a.5.5,0,0,0,1,0V43.46a.5.5,0,0,0-1,0Z" transform="translate(-15.98 -1.72)"/><path class="cls-1" d="M197.13,43.13V52a.5.5,0,0,0,1,0V43.13a.5.5,0,0,0-1,0Z" transform="translate(-15.98 -1.72)"/><path class="cls-1" d="M174.88,34.88v9.37a.5.5,0,0,0,1,0V34.88a.5.5,0,0,0-1,0Z" transform="translate(-15.98 -1.72)"/><path class="cls-1" d="M171,34.58v9.67a.5.5,0,0,0,1,0V34.58a.5.5,0,0,0-1,0Z" transform="translate(-15.98 -1.72)"/><path class="cls-1" d="M167.25,34.63V59.24a.5.5,0,0,0,1,0V34.63a.5.5,0,0,0-1,0Z" transform="translate(-15.98 -1.72)"/><path class="cls-1" d="M162.88,35.75V50.5a.5.5,0,0,0,1,0V35.75a.5.5,0,0,0-1,0Z" transform="translate(-15.98 -1.72)"/><path class="cls-1" d="M124.5,107.67v50.71a.5.5,0,0,0,1,0V107.67a.5.5,0,0,0-1,0Z" transform="translate(-15.98 -1.72)"/><path class="cls-1" d="M129.25,107.38v38.37a.5.5,0,0,0,1,0V107.38a.5.5,0,0,0-1,0Z" transform="translate(-15.98 -1.72)"/><path class="cls-1" d="M132.88,107v9.75a.5.5,0,0,0,1,0V107a.5.5,0,0,0-1,0Z" transform="translate(-15.98 -1.72)"/><path class="cls-1" d="M138.38,108.5v8.25a.5.5,0,0,0,1,0V108.5a.5.5,0,0,0-1,0Z" transform="translate(-15.98 -1.72)"/><path class="cls-1" d="M149.13,127.5V151a.5.5,0,0,0,1,0V127.5a.5.5,0,0,0-1,0Z" transform="translate(-15.98 -1.72)"/><path class="cls-1" d="M136.38,120.23v18.39a.5.5,0,0,0,1,0V120.23a.5.5,0,0,0-1,0Z" transform="translate(-15.98 -1.72)"/><path class="cls-1" d="M142.63,144.87v14.59a.5.5,0,0,0,1,0V144.87a.5.5,0,0,0-1,0Z" transform="translate(-15.98 -1.72)"/><path class="cls-1" d="M160.76,117.5v40.88a.5.5,0,0,0,1,0V117.5a.5.5,0,0,0-1,0Z" transform="translate(-15.98 -1.72)"/><path class="cls-1" d="M154.88,126.79v30.33a.5.5,0,0,0,1,0V126.79a.5.5,0,0,0-1,0Z" transform="translate(-15.98 -1.72)"/><path class="cls-1" d="M164.63,104.42v56.21a.5.5,0,0,0,1,0V104.42a.5.5,0,0,0-1,0Z" transform="translate(-15.98 -1.72)"/><path class="cls-1" d="M168.25,104.42v58a.5.5,0,0,0,1,0v-58a.5.5,0,0,0-1,0Z" transform="translate(-15.98 -1.72)"/><path class="cls-1" d="M172.75,113.75v48.63a.5.5,0,0,0,1,0V113.75a.5.5,0,0,0-1,0Z" transform="translate(-15.98 -1.72)"/><path class="cls-1" d="M176.38,139.19V160a.5.5,0,0,0,1,0V139.19a.5.5,0,0,0-1,0Z" transform="translate(-15.98 -1.72)"/><path class="cls-1" d="M186.75,125v21.88a.5.5,0,0,0,1,0V125a.5.5,0,0,0-1,0Z" transform="translate(-15.98 -1.72)"/><path class="cls-1" d="M193.13,118.69v33a.5.5,0,0,0,1,0v-33a.5.5,0,0,0-1,0Z" transform="translate(-15.98 -1.72)"/><path class="cls-1" d="M196.5,99.48v48.27a.5.5,0,0,0,1,0V99.48a.5.5,0,0,0-1,0Z" transform="translate(-15.98 -1.72)"/><path class="cls-1" d="M201.5,99.25v45a.5.5,0,0,0,1,0v-45a.5.5,0,0,0-1,0Z" transform="translate(-15.98 -1.72)"/><path class="cls-1" d="M208.75,104.42v33.64a.5.5,0,0,0,1,0V104.42a.5.5,0,0,0-1,0Z" transform="translate(-15.98 -1.72)"/><path class="cls-1" d="M216.75,99.25v33.27a.5.5,0,0,0,1,0V99.25a.5.5,0,0,0-1,0Z" transform="translate(-15.98 -1.72)"/><path class="cls-1" d="M220.75,99.13V131.5a.5.5,0,0,0,1,0V99.13a.5.5,0,0,0-1,0Z" transform="translate(-15.98 -1.72)"/><path class="cls-1" d="M193.88,72.23V85.81a.5.5,0,0,0,1,0V72.23a.5.5,0,0,0-1,0Z" transform="translate(-15.98 -1.72)"/><path class="cls-1" d="M174.38,47.56V58.79a.5.5,0,0,0,1,0V47.56a.5.5,0,0,0-1,0Z" transform="translate(-15.98 -1.72)"/><path class="cls-1" d="M186.75,56.13v3.12a.5.5,0,0,0,1,0V56.13a.5.5,0,0,0-1,0Z" transform="translate(-15.98 -1.72)"/><path class="cls-1" d="M141.88,13v6.5a.5.5,0,0,0,1,0V13a.5.5,0,0,0-1,0Z" transform="translate(-15.98 -1.72)"/><path class="cls-1" d="M143.63,87.5h12.44a.5.5,0,0,0,0-1H143.63a.5.5,0,0,0,0,1Z" transform="translate(-15.98 -1.72)"/><path class="cls-1" d="M159.72,83.81h18.84a.5.5,0,0,0,0-1H159.72a.5.5,0,0,0,0,1Z" transform="translate(-15.98 -1.72)"/><path class="cls-1" d="M148.83,80.44h33.23a.5.5,0,0,0,0-1H148.83a.5.5,0,0,0,0,1Z" transform="translate(-15.98 -1.72)"/><path class="cls-1" d="M154.31,77.69h24.42a.5.5,0,0,0,0-1H154.31a.5.5,0,0,0,0,1Z" transform="translate(-15.98 -1.72)"/><path class="cls-1" d="M164.19,69.94h9.35a.5.5,0,0,0,0-1h-9.35a.5.5,0,0,0,0,1Z" transform="translate(-15.98 -1.72)"/><path class="cls-1" d="M146.85,96.69H184a.5.5,0,0,0,0-1H146.85a.5.5,0,0,0,0,1Z" transform="translate(-15.98 -1.72)"/><path class="cls-1" d="M164.19,90.5h9.25a.5.5,0,0,0,0-1h-9.25a.5.5,0,0,0,0,1Z" transform="translate(-15.98 -1.72)"/><path class="cls-1" d="M187.44,97v16a.5.5,0,0,0,1,0V97a.5.5,0,0,0-1,0Z" transform="translate(-15.98 -1.72)"/><path class="cls-1" d="M147.06,110h9.16a.5.5,0,0,0,0-1h-9.16a.5.5,0,0,0,0,1Z" transform="translate(-15.98 -1.72)"/><path class="cls-1" d="M95.08,47.29,115.81,68a.5.5,0,0,0,.71-.71L95.79,46.58a.5.5,0,0,0-.71.71Z" transform="translate(-15.98 -1.72)"/><path class="cls-1" d="M112.65,59.85,118.81,66a.5.5,0,0,0,.71-.71l-6.17-6.17a.5.5,0,0,0-.71.71Z" transform="translate(-15.98 -1.72)"/><path class="cls-1" d="M123.38,55.95l2.22-2.22a.5.5,0,0,0-.71-.71l-2.22,2.22a.5.5,0,0,0,.71.71Z" transform="translate(-15.98 -1.72)"/><path class="cls-1" d="M123.85,65l5.63-5.62a.5.5,0,0,0-.71-.71l-5.62,5.63a.5.5,0,0,0,.71.71Z" transform="translate(-15.98 -1.72)"/><path class="cls-1" d="M127.85,65.85l6.5-6.5a.5.5,0,0,0-.71-.71l-6.5,6.5a.5.5,0,0,0,.71.71Z" transform="translate(-15.98 -1.72)"/><path class="cls-1" d="M131.85,72.48,143.35,61a.5.5,0,0,0-.71-.71l-11.5,11.5a.5.5,0,0,0,.71.71Z" transform="translate(-15.98 -1.72)"/><path class="cls-1" d="M135.85,73.35,149.1,60.1a.5.5,0,0,0-.71-.71L135.15,72.65a.5.5,0,0,0,.71.71Z" transform="translate(-15.98 -1.72)"/><path class="cls-1" d="M113.35,69.15,94.29,50.08a.5.5,0,0,0-.71.71l19.06,19.06a.5.5,0,0,0,.71-.71Z" transform="translate(-15.98 -1.72)"/><path class="cls-1" d="M108.48,71,91.95,54.49a.5.5,0,0,0-.71.71l16.53,16.53a.5.5,0,0,0,.71-.71Z" transform="translate(-15.98 -1.72)"/><path class="cls-1" d="M105.6,72.65,90,57a.5.5,0,0,0-.71.71L104.9,73.35a.5.5,0,0,0,.71-.71Z" transform="translate(-15.98 -1.72)"/><path class="cls-1" d="M100.48,75.77,87.79,63.08a.5.5,0,0,0-.71.71L99.77,76.48a.5.5,0,0,0,.71-.71Z" transform="translate(-15.98 -1.72)"/><path class="cls-1" d="M97.35,77.15,86.65,66.44a.5.5,0,0,0-.71.71L96.65,77.85a.5.5,0,0,0,.71-.71Z" transform="translate(-15.98 -1.72)"/><path class="cls-1" d="M92.23,79l-7-7a.5.5,0,0,0-.71.71l7,7a.5.5,0,0,0,.71-.71Z" transform="translate(-15.98 -1.72)"/><path class="cls-1" d="M88.35,81.15,84.2,77a.5.5,0,0,0-.71.71l4.16,4.16a.5.5,0,0,0,.71-.71Z" transform="translate(-15.98 -1.72)"/><path class="cls-1" d="M143.35,44.77l-6-5.81c-.46-.45-1.17.26-.71.71l6,5.81c.46.45,1.17-.26.71-.71Z" transform="translate(-15.98 -1.72)"/><path class="cls-1" d="M153.52,27.83,147.34,34a.5.5,0,0,0,.71.71l6.18-6.18a.5.5,0,0,0-.71-.71Z" transform="translate(-15.98 -1.72)"/><path class="cls-1" d="M157,30.1l6,6a.5.5,0,0,0,.71-.71l-6-6a.5.5,0,0,0-.71.71Z" transform="translate(-15.98 -1.72)"/><path class="cls-1" d="M161.65,29.23,167.4,35a.5.5,0,0,0,.71-.71l-5.75-5.75a.5.5,0,0,0-.71.71Z" transform="translate(-15.98 -1.72)"/><path class="cls-1" d="M165.52,29.23l5.63,5.63a.5.5,0,0,0,.71-.71l-5.62-5.62a.5.5,0,0,0-.71.71Z" transform="translate(-15.98 -1.72)"/><path class="cls-1" d="M169.9,30.1,175,35.23a.5.5,0,0,0,.71-.71L170.6,29.4a.5.5,0,0,0-.71.71Z" transform="translate(-15.98 -1.72)"/><path class="cls-1" d="M181.4,31l12.83,12.83a.5.5,0,0,0,.71-.71L182.1,30.27a.5.5,0,0,0-.71.71Z" transform="translate(-15.98 -1.72)"/><path class="cls-1" d="M187.15,33.35l10.13,10.13a.5.5,0,0,0,.71-.71L187.85,32.65a.5.5,0,0,0-.71.71Z" transform="translate(-15.98 -1.72)"/><path class="cls-1" d="M194.27,52.35l5.13,5.13a.5.5,0,0,0,.71-.71L195,51.65a.5.5,0,0,0-.71.71Z" transform="translate(-15.98 -1.72)"/><path class="cls-1" d="M197.27,52.35l5.46,5.46a.5.5,0,0,0,.71-.71L198,51.65a.5.5,0,0,0-.71.71Z" transform="translate(-15.98 -1.72)"/><path class="cls-1" d="M201.52,52.35,207.17,58a.5.5,0,0,0,.71-.71l-5.65-5.65a.5.5,0,0,0-.71.71Z" transform="translate(-15.98 -1.72)"/><path class="cls-1" d="M205.52,52.35l5.5,5.5a.5.5,0,0,0,.71-.71l-5.5-5.5a.5.5,0,0,0-.71.71Z" transform="translate(-15.98 -1.72)"/><path class="cls-1" d="M215.85,57.23,224,49.07a.5.5,0,0,0-.71-.71l-8.16,8.16a.5.5,0,0,0,.71.71Z" transform="translate(-15.98 -1.72)"/><path class="cls-1" d="M220.48,64.48,231.9,53.06a.5.5,0,0,0-.71-.71L219.77,63.77a.5.5,0,0,0,.71.71Z" transform="translate(-15.98 -1.72)"/><path class="cls-1" d="M226.27,104.6l7.85,7.85a.5.5,0,0,0,.71-.71L227,103.9a.5.5,0,0,0-.71.71Z" transform="translate(-15.98 -1.72)"/><path class="cls-1" d="M215.15,93.73l5.75,5.75a.5.5,0,0,0,.71-.71L215.85,93a.5.5,0,0,0-.71.71Z" transform="translate(-15.98 -1.72)"/><path class="cls-1" d="M211,93.73l5.88,5.88a.5.5,0,0,0,.71-.71L211.73,93a.5.5,0,0,0-.71.71Z" transform="translate(-15.98 -1.72)"/><path class="cls-1" d="M202.35,99.6l5.52-5.52a.5.5,0,0,0-.71-.71l-5.52,5.52a.5.5,0,0,0,.71.71Z" transform="translate(-15.98 -1.72)"/><path class="cls-1" d="M202.77,93l-6.1,6.1a.5.5,0,0,0,.71.71l6.1-6.1a.5.5,0,0,0-.71-.71Z" transform="translate(-15.98 -1.72)"/><path class="cls-1" d="M188.29,97.35,200,85.6a.5.5,0,0,0-.71-.71L187.58,96.65a.5.5,0,0,0,.71.71Z" transform="translate(-15.98 -1.72)"/><path class="cls-1" d="M184.35,96.54l10.38-10.37a.5.5,0,0,0-.71-.71L183.65,95.83a.5.5,0,0,0,.71.71Z" transform="translate(-15.98 -1.72)"/><path class="cls-1" d="M156.42,87.35l3.66-3.66a.5.5,0,0,0-.71-.71l-3.66,3.66a.5.5,0,0,0,.71.71Z" transform="translate(-15.98 -1.72)"/><path class="cls-1" d="M181.93,86l-3-3a.5.5,0,0,0-.71.71l3,3a.5.5,0,0,0,.71-.71Z" transform="translate(-15.98 -1.72)"/><path class="cls-1" d="M183.05,72.16l-4.68,4.68a.5.5,0,0,0,.71.71l4.68-4.68a.5.5,0,0,0-.71-.71Z" transform="translate(-15.98 -1.72)"/><path class="cls-1" d="M154.67,76.83l-5.15-5.15a.5.5,0,0,0-.71.71L154,77.54a.5.5,0,0,0,.71-.71Z" transform="translate(-15.98 -1.72)"/><path class="cls-1" d="M163,50.15l-4.7,4.7a.5.5,0,0,0,.71.71l4.7-4.7a.5.5,0,0,0-.71-.71Z" transform="translate(-15.98 -1.72)"/><path class="cls-1" d="M171.15,44.6l3.31,3.31a.5.5,0,0,0,.71-.71l-3.31-3.31a.5.5,0,0,0-.71.71Z" transform="translate(-15.98 -1.72)"/><path class="cls-1" d="M175,44.6,186.9,56.48a.5.5,0,0,0,.71-.71L175.73,43.9a.5.5,0,0,0-.71.71Z" transform="translate(-15.98 -1.72)"/><path class="cls-1" d="M118.81,102.19l5.83,5.83a.5.5,0,0,0,.71-.71l-5.83-5.83a.5.5,0,0,0-.71.71Z" transform="translate(-15.98 -1.72)"/><path class="cls-1" d="M123.15,101.48l6.25,6.25a.5.5,0,0,0,.71-.71l-6.25-6.25a.5.5,0,0,0-.71.71Z" transform="translate(-15.98 -1.72)"/><path class="cls-1" d="M127.15,101.48l5.87,5.88a.5.5,0,0,0,.71-.71l-5.88-5.87a.5.5,0,0,0-.71.71Z" transform="translate(-15.98 -1.72)"/><path class="cls-1" d="M131.15,101.48l7.38,7.38a.5.5,0,0,0,.71-.71l-7.37-7.37a.5.5,0,0,0-.71.71Z" transform="translate(-15.98 -1.72)"/><path class="cls-1" d="M133,117.1l3.49,3.49a.5.5,0,0,0,.71-.71l-3.49-3.49a.5.5,0,0,0-.71.71Z" transform="translate(-15.98 -1.72)"/><path class="cls-1" d="M138.52,117.1l10.75,10.75a.5.5,0,0,0,.71-.71L139.23,116.4a.5.5,0,0,0-.71.71Z" transform="translate(-15.98 -1.72)"/><path class="cls-1" d="M154.63,115.72H159a.5.5,0,0,0,0-1h-4.35a.5.5,0,0,0,0,1Z" transform="translate(-15.98 -1.72)"/><path class="cls-1" d="M161.61,117.15l-2.28-2.28a.5.5,0,0,0-.71.71l2.28,2.28a.5.5,0,0,0,.71-.71Z" transform="translate(-15.98 -1.72)"/><path class="cls-1" d="M87.65,106.27l-4.54,4.54a.5.5,0,0,0,.71.71L88.35,107a.5.5,0,0,0-.71-.71Z" transform="translate(-15.98 -1.72)"/><path class="cls-1" d="M91.52,109.15l-5.37,5.38a.5.5,0,0,0,.71.71l5.38-5.37a.5.5,0,0,0-.71-.71Z" transform="translate(-15.98 -1.72)"/><path class="cls-1" d="M96.65,110.52l-7.85,7.85a.5.5,0,0,0,.71.71l7.85-7.85a.5.5,0,0,0-.71-.71Z" transform="translate(-15.98 -1.72)"/><path class="cls-1" d="M99.77,112.4,90.21,122a.5.5,0,0,0,.71.71l9.56-9.56a.5.5,0,0,0-.71-.71Z" transform="translate(-15.98 -1.72)"/><path class="cls-1" d="M104.9,135.27l-4.21,4.21a.5.5,0,0,0,.71.71L105.6,136a.5.5,0,0,0-.71-.71Z" transform="translate(-15.98 -1.72)"/><path class="cls-1" d="M107.77,136.52,102,142.25a.5.5,0,0,0,.71.71l5.73-5.73a.5.5,0,0,0-.71-.71Z" transform="translate(-15.98 -1.72)"/><path class="cls-1" d="M112.65,140.15l-6.17,6.17a.5.5,0,0,0,.71.71l6.17-6.17a.5.5,0,0,0-.71-.71Z" transform="translate(-15.98 -1.72)"/><path class="cls-1" d="M115.81,141.15l-6.71,6.71a.5.5,0,0,0,.71.71l6.71-6.71a.5.5,0,0,0-.71-.71Z" transform="translate(-15.98 -1.72)"/><path class="cls-1" d="M129.4,146.1l1.3,1.3a.5.5,0,0,0,.71-.71l-1.3-1.3a.5.5,0,0,0-.71.71Z" transform="translate(-15.98 -1.72)"/><path class="cls-1" d="M136.52,139l6.24,6.24a.5.5,0,0,0,.71-.71l-6.24-6.24a.5.5,0,0,0-.71.71Z" transform="translate(-15.98 -1.72)"/><path class="cls-1" d="M137.94,165.35l5.54-5.54a.5.5,0,0,0-.71-.71l-5.54,5.54a.5.5,0,0,0,.71.71Z" transform="translate(-15.98 -1.72)"/><path class="cls-1" d="M155,156.77l-9.76,9.76a.5.5,0,0,0,.71.71l9.76-9.76a.5.5,0,0,0-.71-.71Z" transform="translate(-15.98 -1.72)"/><path class="cls-1" d="M160.91,158l-9.64,9.64a.5.5,0,0,0,.71.71l9.64-9.64a.5.5,0,0,0-.71-.71Z" transform="translate(-15.98 -1.72)"/><path class="cls-1" d="M164.77,160.27l-7.85,7.85a.5.5,0,0,0,.71.71l7.85-7.85a.5.5,0,0,0-.71-.71Z" transform="translate(-15.98 -1.72)"/><path class="cls-1" d="M168.4,162l-5.74,5.74a.5.5,0,0,0,.71.71l5.74-5.74a.5.5,0,0,0-.71-.71Z" transform="translate(-15.98 -1.72)"/><path class="cls-1" d="M172.9,162.73l4.57,4.57a.5.5,0,0,0,.71-.71L173.6,162a.5.5,0,0,0-.71.71Z" transform="translate(-15.98 -1.72)"/><path class="cls-1" d="M176.52,160.35l2.79,2.79a.5.5,0,0,0,.71-.71l-2.79-2.79a.5.5,0,0,0-.71.71Z" transform="translate(-15.98 -1.72)"/><path class="cls-1" d="M182.71,162.33h-3a.5.5,0,0,0,0,1h3a.5.5,0,0,0,0-1Z" transform="translate(-15.98 -1.72)"/><path class="cls-1" d="M196.65,148.1l7,7a.5.5,0,0,0,.71-.71l-7-7a.5.5,0,0,0-.71.71Z" transform="translate(-15.98 -1.72)"/><path class="cls-1" d="M201.65,144.6l7,7a.5.5,0,0,0,.71-.71l-7-7a.5.5,0,0,0-.71.71Z" transform="translate(-15.98 -1.72)"/><path class="cls-1" d="M208.9,138.42l7,7a.5.5,0,0,0,.71-.71l-7-7a.5.5,0,0,0-.71.71Z" transform="translate(-15.98 -1.72)"/><path class="cls-1" d="M216.9,132.87l5.4,5.4a.5.5,0,0,0,.71-.71l-5.4-5.4a.5.5,0,0,0-.71.71Z" transform="translate(-15.98 -1.72)"/><path class="cls-1" d="M220.9,131.85l3.56,3.56a.5.5,0,0,0,.71-.71l-3.56-3.56a.5.5,0,0,0-.71.71Z" transform="translate(-15.98 -1.72)"/><circle class="cls-2" cx="91.27" cy="47.05" r="2.8"/><circle class="cls-2" cx="104.65" cy="45.96" r="2.8"/><circle class="cls-2" cx="104.88" cy="55.83" r="2.8"/><circle class="cls-2" cx="140.42" cy="55.36" r="2.8"/><circle class="cls-2" cx="145.23" cy="67.99" r="2.8"/><circle class="cls-2" cx="160.51" cy="67.72" r="2.8"/><circle class="cls-2" cx="151.77" cy="60.58" r="2.8"/><circle class="cls-2" cx="158.9" cy="60.32" r="2.8"/><circle class="cls-2" cx="171.27" cy="60.58" r="2.8"/><circle class="cls-2" cx="169.49" cy="68.73" r="2.8"/><circle class="cls-2" cx="145.28" cy="88.28" r="2.8"/><circle class="cls-2" cx="124.63" cy="85.28" r="2.8"/><circle class="cls-2" cx="120.3" cy="96.08" r="2.8"/><circle class="cls-2" cx="127.87" cy="94.47" r="2.8"/><path class="cls-1" d="M159.33,102.5h3.38a.5.5,0,0,0,0-1h-3.38a.5.5,0,0,0,0,1Z" transform="translate(-15.98 -1.72)"/><path class="cls-1" d="M165.48,104.06l-2.42-2.42a.5.5,0,0,0-.71.71l2.42,2.42a.5.5,0,0,0,.71-.71Z" transform="translate(-15.98 -1.72)"/><circle class="cls-2" cx="140.35" cy="100.28" r="2.8"/><circle class="cls-2" cx="128.14" cy="107.78" r="2.8"/><circle class="cls-2" cx="143.23" cy="107.78" r="2.8"/><circle class="cls-2" cx="135.7" cy="113.5" r="2.8"/><circle class="cls-2" cx="139.4" cy="122.11" r="2.8"/><path class="cls-1" d="M174.49,101.5h-3.33a.5.5,0,0,0,0,1h3.33a.5.5,0,0,0,0-1Z" transform="translate(-15.98 -1.72)"/><path class="cls-1" d="M169.1,104.77l2.41-2.41a.5.5,0,0,0-.71-.71l-2.41,2.41a.5.5,0,0,0,.71.71Z" transform="translate(-15.98 -1.72)"/><circle class="cls-2" cx="161.45" cy="100.28" r="2.8"/><path class="cls-1" d="M179.06,110.75h-3.31a.5.5,0,0,0,0,1h3.31a.5.5,0,0,0,0-1Z" transform="translate(-15.98 -1.72)"/><path class="cls-1" d="M173.6,114.1l2.5-2.5a.5.5,0,0,0-.71-.71l-2.5,2.5a.5.5,0,0,0,.71.71Z" transform="translate(-15.98 -1.72)"/><circle class="cls-2" cx="166.11" cy="109.53" r="2.8"/><circle class="cls-2" cx="176.58" cy="98.76" r="2.8"/><path class="cls-1" d="M193.05,107.67v-4.2a.5.5,0,0,0-1,0v4.2a.5.5,0,0,0,1,0Z" transform="translate(-15.98 -1.72)"/><circle class="cls-2" cx="176.58" cy="108.87" r="2.8"/><path class="cls-1" d="M187.58,113.35l5.69,5.69a.5.5,0,0,0,.71-.71l-5.69-5.69a.5.5,0,0,0-.71.71Z" transform="translate(-15.98 -1.72)"/><path class="cls-1" d="M182.52,123.38h2.6a.5.5,0,0,0,0-1h-2.6a.5.5,0,0,0,0,1Z" transform="translate(-15.98 -1.72)"/><path class="cls-1" d="M187.6,124.65l-2.13-2.13a.5.5,0,0,0-.71.71l2.13,2.13a.5.5,0,0,0,.71-.71Z" transform="translate(-15.98 -1.72)"/><circle class="cls-2" cx="163.57" cy="121.28" r="2.8"/><circle class="cls-2" cx="161.65" cy="134.12" r="2.8"/><circle class="cls-2" cx="171.65" cy="148.28" r="2.8"/><circle class="cls-2" cx="169.67" cy="161.12" r="2.8"/><circle class="cls-2" cx="177.65" cy="153.39" r="2.8"/><circle class="cls-2" cx="210.65" cy="126.82" r="2.8"/><circle class="cls-2" cx="193.27" cy="99.69" r="2.8"/><circle class="cls-2" cx="204.15" cy="88.08" r="2.8"/><circle class="cls-2" cx="210.65" cy="67.49" r="2.8"/><circle class="cls-2" cx="216.07" cy="94.09" r="2.8"/><circle class="cls-2" cx="221.66" cy="100.56" r="2.8"/><circle class="cls-2" cx="222.36" cy="84.53" r="2.8"/><circle class="cls-2" cx="136.63" cy="40.61" r="2.8"/><path class="cls-1" d="M149.1,45.48l1.32-1.32a.5.5,0,0,0-.71-.71l-1.32,1.32a.5.5,0,0,0,.71.71Z" transform="translate(-15.98 -1.72)"/><circle class="cls-2" cx="129.32" cy="35.04" r="2.8"/><circle class="cls-2" cx="130.65" cy="21.16" r="2.8"/><path class="cls-1" d="M142,19.85l1.76,1.76a.5.5,0,0,0,.71-.71l-1.76-1.76a.5.5,0,0,0-.71.71Z" transform="translate(-15.98 -1.72)"/><circle class="cls-2" cx="159.4" cy="23.89" r="2.8"/><circle class="cls-2" cx="196.3" cy="38.91" r="2.8"/><path class="cls-1" d="M214.77,38.71l4-4a.5.5,0,0,0-.71-.71l-4,4a.5.5,0,0,0,.71.71Z" transform="translate(-15.98 -1.72)"/><circle class="cls-2" cx="133.51" cy="152.34" r="2.8"/><circle class="cls-2" cx="117.28" cy="147.38" r="2.8"/><circle class="cls-2" cx="100.97" cy="150.89" r="2.8"/><circle class="cls-3" cx="78.66" cy="124.23" r="2.8"/></g><g id="Bottom"><circle class="cls-4" cx="145.38" cy="88.83" r="86.33"/><circle class="cls-5" cx="145.38" cy="88.83" r="82.67"/><circle class="cls-6" cx="145.38" cy="88.83" r="81.17"/><ellipse class="cls-7" cx="145.38" cy="88.83" rx="78.38" ry="78.37"/></g><g id="Layer_10" data-name="Layer 10"><path class="cls-8" d="M26.25,146.62c-1.13.16-5.09.73-5.91.77h-.27A2.38,2.38,0,0,1,18.8,147a1.92,1.92,0,0,1-.74-1,2,2,0,0,1,.13-1.44,2.58,2.58,0,0,1,.67-.91,19.55,19.55,0,0,1,3.38-2.41c1.7-.91,2.55-1.37,3.11-1.65s2.65-1.3,5.38-2.42c2-.84,3.61-1.42,4.22-1.64.92-.33,2.7-1,5-1.64,2.5-.74,4.46-1.21,5.27-1.4,2.75-.64,4.88-1,5.59-1.12,1.82-.3,4-.6,6.6-.81" transform="translate(-15.98 -1.72)"/><path class="cls-8" d="M19.45,147.24a7.18,7.18,0,0,0,1.33.16h.49c.28,0,.54,0,1-.08s.78-.09,1.3-.17" transform="translate(-15.98 -1.72)"/><path class="cls-8" d="M295.9,146.66c2.52.45,4.4.77,5.13.89.08,0,.57.09,1.2.14a6.57,6.57,0,0,0,.94,0,3.27,3.27,0,0,0,.84-.13,2,2,0,0,0,.77-.4,1.75,1.75,0,0,0,.61-1.3,1.88,1.88,0,0,0-.09-.58,2.09,2.09,0,0,0-.33-.64,5.08,5.08,0,0,0-1.29-1.15c-.62-.42-1.11-.71-1.2-.76-1.18-.68-2.12-1.15-2.25-1.21-1.21-.61-2.18-1-3.09-1.44l-1.2-.52-1.73-.73c-.21-.09-1-.39-2.38-.94-1.27-.49-1.94-.75-2.89-1.09-1.31-.47-2.3-.8-3.24-1.11-1.42-.47-2.51-.81-2.91-.93-.88-.27-2.1-.65-3.72-1.09-.4-.11-1.65-.45-3.3-.85-2.31-.56-4.09-.92-5.22-1.15-2-.4-3.46-.66-4.05-.76l-1.65-.27" transform="translate(-15.98 -1.72)"/><line class="cls-8" x1="40.32" y1="115.79" x2="40.32" y2="128.75"/><line class="cls-8" x1="249.94" y1="115.79" x2="249.94" y2="129.98"/><path class="cls-8" d="M244.48,110.31c1.12.32,2.68.79,4.54,1.37,2.58.81,4.5,1.46,6.52,2.14,2.93,1,5.1,1.76,5.78,2,1.78.64,3.33,1.21,4.6,1.68" transform="translate(-15.98 -1.72)"/><path class="cls-8" d="M77.75,110.29c-2.91.85-5.31,1.61-7.06,2.19s-3,1-5.6,1.9c-2.95,1-4.66,1.63-5.13,1.8l-3.66,1.34" transform="translate(-15.98 -1.72)"/><path class="cls-8" d="M56.3,117.77a.49.49,0,0,1,0-.16.45.45,0,0,1,.39-.25" transform="translate(-15.98 -1.72)"/><path class="cls-8" d="M33.31,146.06q-3.12,1.49-6.26,3c-.26.13-1,.45-1.87.92l-1.61.85c-.52.28-.9.48-1.4.78a6.18,6.18,0,0,0-1.14.84,2.7,2.7,0,0,0-.48.58,2,2,0,0,0-.28.66,1.83,1.83,0,0,0,.11,1.06,1.7,1.7,0,0,0,.94,1,2.18,2.18,0,0,0,.52.15,3.52,3.52,0,0,0,.76,0,8.65,8.65,0,0,0,1-.08" transform="translate(-15.98 -1.72)"/><path class="cls-9" d="M267.64,118.47a2,2,0,0,0,.12-1.84,2,2,0,0,0-1.38-1.1,1.25,1.25,0,0,0-.66,2.41q.35.15-.05-.15a.4.4,0,0,1-.18-.58,1.25,1.25,0,0,0,2.16,1.26Z" transform="translate(-15.98 -1.72)"/></g><g id="Layer_9" data-name="Layer 9"><path d="M282.76,137.64c11.22,3.45,22,8.53,21.62,9.75-.54,1.67-21.89-4.6-22.5-2.75s19.67,9.38,19.13,11c-.33,1-7.64-1.59-18-3.13-13.62-2-45.48-4.17-52.88-4.62-1-.06-3.75-.19-4.37-1.75a2.83,2.83,0,0,1,.08-2.06,4.13,4.13,0,0,1,.42-.81,5.14,5.14,0,0,1,3.25-2,39.81,39.81,0,0,1,13.37-.88c6.85.92,7.37,2,12,2.25A31.57,31.57,0,0,0,265,141.47v-7.95l1.92.37A123.28,123.28,0,0,1,282.76,137.64Z" transform="translate(-15.98 -1.72)"/><path d="M265,133.52v7.95c-5.71-2.15-12.29-4.41-19.66-6.61a22.16,22.16,0,0,0,3.76-3.8,12.57,12.57,0,0,0,5.69,1.26,13,13,0,0,0,4.92-.92,12.39,12.39,0,0,0,5.29,1.25Z" transform="translate(-15.98 -1.72)"/><path d="M245.3,134.86c7.37,2.2,13.95,4.46,19.66,6.61a31.57,31.57,0,0,1-10.08,1.17c-4.63-.23-5.15-1.33-12-2.25a39.81,39.81,0,0,0-13.37.88,5.14,5.14,0,0,0-3.25,2,4.13,4.13,0,0,0-.42.81l.88-3.08c.31-.09.62-.21.93-.31h.06a19.71,19.71,0,0,0,7-1.31A21.55,21.55,0,0,0,245.3,134.86Z" transform="translate(-15.98 -1.72)"/><path d="M96.63,143.27a3,3,0,0,1,0,2.24,3.7,3.7,0,0,1-2.25,1.76,23.68,23.68,0,0,1-7.37,1.5,34.58,34.58,0,0,1-5,0c-6.3-.5-18.95.7-24.63,1.24-20.4,2-34.66,7-35.12,5.63-.56-1.66,19.59-9.2,19-11S20.66,148.91,20,147c-.47-1.36,9.2-6.51,19.38-9.74a87,87,0,0,1,17.5-3.63H58.3v7.83a33.75,33.75,0,0,0,10.08,1.3c3-.09,3.35-.5,10.75-1.63a40,40,0,0,1,13-.25C93.82,141.18,96,141.69,96.63,143.27Z" transform="translate(-15.98 -1.72)"/><path d="M93.4,130.73l3.23,12.54c-.67-1.58-2.81-2.09-4.5-2.38a40,40,0,0,0-13,.25c-7.4,1.13-7.8,1.54-10.75,1.63a33.75,33.75,0,0,1-10.08-1.3A294.34,294.34,0,0,1,93.4,130.73Z" transform="translate(-15.98 -1.72)"/><path d="M94.93,130.36l-1.53.36h0a294.34,294.34,0,0,0-35.1,10.74V120.06a296.66,296.66,0,0,1,32-10,17.57,17.57,0,0,0-.69,5.43c0,.41,0,.82,0,1.24A22.51,22.51,0,0,0,94.93,130.36Z" transform="translate(-15.98 -1.72)"/><path class="cls-8" d="M58.3,120.06a296.66,296.66,0,0,1,32-10" transform="translate(-15.98 -1.72)"/><path class="cls-8" d="M93.4,130.72l1.53-.36" transform="translate(-15.98 -1.72)"/><path class="cls-8" d="M58.3,141.47a294.34,294.34,0,0,1,35.1-10.74" transform="translate(-15.98 -1.72)"/><path class="cls-8" d="M265,132.65v8.82a31.57,31.57,0,0,1-10.08,1.17c-4.63-.23-5.15-1.33-12-2.25a39.81,39.81,0,0,0-13.37.88,5.14,5.14,0,0,0-3.25,2,4.13,4.13,0,0,0-.42.81,2.83,2.83,0,0,0-.08,2.06c.62,1.56,3.39,1.69,4.37,1.75,7.4.45,39.26,2.61,52.88,4.62,10.36,1.54,17.67,4.1,18,3.13.54-1.62-19.73-9.18-19.13-11s22,4.42,22.5,2.75c.4-1.22-10.4-6.3-21.62-9.75a123.28,123.28,0,0,0-15.88-3.75" transform="translate(-15.98 -1.72)"/><path class="cls-8" d="M58.3,120.06v21.41a33.75,33.75,0,0,0,10.08,1.3c3-.09,3.35-.5,10.75-1.63a40,40,0,0,1,13-.25c1.69.29,3.83.8,4.5,2.38a3,3,0,0,1,0,2.24,3.7,3.7,0,0,1-2.25,1.76,23.68,23.68,0,0,1-7.37,1.5,34.58,34.58,0,0,1-5,0c-6.3-.5-18.95.7-24.63,1.24-20.4,2-34.66,7-35.12,5.63-.56-1.66,19.59-9.2,19-11S20.66,148.91,20,147c-.47-1.36,9.2-6.51,19.38-9.74a87,87,0,0,1,17.5-3.63" transform="translate(-15.98 -1.72)"/><line class="cls-8" x1="40.9" y1="131.93" x2="42.32" y2="131.93"/><polyline class="cls-8" points="80.65 141.56 77.42 129.02 77.42 129.01"/><line class="cls-8" x1="250.9" y1="132.18" x2="248.98" y2="131.81"/><line class="cls-8" x1="209.86" y1="142.37" x2="210.74" y2="139.29"/><path d="M281.67,151.94c-13.61-2-45.47-4.17-52.87-4.62-1-.06-3.75-.19-4.37-1.75a2.83,2.83,0,0,1,.08-2.06,4.13,4.13,0,0,1,.42-.81,5.14,5.14,0,0,1,3.24-2,39.87,39.87,0,0,1,13.38-.88c6.85.92,7.37,2,12,2.25a31.57,31.57,0,0,0,10.08-1.17V133l1.92.37a123.28,123.28,0,0,1,15.88,3.75c11.22,3.45,22,8.53,21.62,9.75-.54,1.67-21.89-4.6-22.5-2.75s19.67,9.38,19.12,11C299.35,156,292,153.48,281.67,151.94Z" transform="translate(-15.98 -1.72)"/><path d="M263.63,133v7.95a291.55,291.55,0,0,0-35.28-10.79l-.58-.14a17.91,17.91,0,0,0,1.3-7.47,22.28,22.28,0,0,0-6.79-15.17,293.35,293.35,0,0,1,41.35,12.16Z" transform="translate(-15.98 -1.72)"/><path d="M263.63,140.9a31.57,31.57,0,0,1-10.08,1.17c-4.63-.23-5.15-1.33-12-2.25a39.87,39.87,0,0,0-13.38.88,5.14,5.14,0,0,0-3.24,2,4.13,4.13,0,0,0-.42.81l3.84-13.4A291.55,291.55,0,0,1,263.63,140.9Z" transform="translate(-15.98 -1.72)"/><path d="M92.07,130.16,95.3,142.7c-.67-1.58-2.81-2.09-4.5-2.38a40,40,0,0,0-13,.25C70.4,141.7,70,142.11,67,142.2A33.75,33.75,0,0,1,57,140.9,294.34,294.34,0,0,1,92.07,130.16Z" transform="translate(-15.98 -1.72)"/><path d="M93,129.52c.06.13.1.25.15.37l-1.13.27A294.34,294.34,0,0,0,57,140.9v-8.23a20.26,20.26,0,0,0,4.24.44A19.61,19.61,0,0,0,67.56,132l.12,0a21.28,21.28,0,0,0,2.89-1.06A20.42,20.42,0,0,0,80,128.27a22,22,0,0,0,5.79-2.8A20.11,20.11,0,0,0,93,129.52Z" transform="translate(-15.98 -1.72)"/><path d="M55.55,133.07H57v7.83A33.75,33.75,0,0,0,67,142.2c3-.09,3.35-.5,10.75-1.63a40,40,0,0,1,13-.25c1.69.29,3.83.8,4.5,2.38a3,3,0,0,1,0,2.24A3.7,3.7,0,0,1,93,146.7a23.68,23.68,0,0,1-7.38,1.5,34.6,34.6,0,0,1-5,0c-6.29-.5-18.94.7-24.62,1.24-20.4,2-34.66,7-35.12,5.63-.56-1.66,19.59-9.2,19-11s-20.6,4.27-21.26,2.37c-.47-1.36,9.2-6.51,19.38-9.74A87,87,0,0,1,55.55,133.07Z" transform="translate(-15.98 -1.72)"/><path class="cls-10" d="M222.28,107.33a293.35,293.35,0,0,1,41.35,12.16" transform="translate(-15.98 -1.72)"/><path class="cls-10" d="M227.77,130l.58.14a291.55,291.55,0,0,1,35.28,10.79" transform="translate(-15.98 -1.72)"/><path class="cls-10" d="M57,140.9a294.34,294.34,0,0,1,35.1-10.74l1.13-.27" transform="translate(-15.98 -1.72)"/><path class="cls-10" d="M263.63,119.49V140.9a31.57,31.57,0,0,1-10.08,1.17c-4.63-.23-5.15-1.33-12-2.25a39.87,39.87,0,0,0-13.38.88,5.14,5.14,0,0,0-3.24,2,4.13,4.13,0,0,0-.42.81,2.83,2.83,0,0,0-.08,2.06c.62,1.56,3.39,1.69,4.37,1.75,7.4.45,39.26,2.61,52.87,4.62,10.37,1.54,17.68,4.1,18,3.13.55-1.62-19.72-9.18-19.12-11s22,4.42,22.5,2.75c.4-1.22-10.4-6.3-21.62-9.75a123.28,123.28,0,0,0-15.88-3.75" transform="translate(-15.98 -1.72)"/><path class="cls-10" d="M57,132.67v8.23A33.75,33.75,0,0,0,67,142.2c3-.09,3.35-.5,10.75-1.63a40,40,0,0,1,13-.25c1.69.29,3.83.8,4.5,2.38a3,3,0,0,1,0,2.24A3.7,3.7,0,0,1,93,146.7a23.68,23.68,0,0,1-7.38,1.5,34.6,34.6,0,0,1-5,0c-6.29-.5-18.94.7-24.62,1.24-20.4,2-34.66,7-35.12,5.63-.56-1.66,19.59-9.2,19-11s-20.6,4.27-21.26,2.37c-.47-1.36,9.2-6.51,19.38-9.74a87,87,0,0,1,17.5-3.63" transform="translate(-15.98 -1.72)"/><line class="cls-10" x1="39.57" y1="131.36" x2="40.99" y2="131.36"/><polyline class="cls-10" points="79.32 140.99 76.09 128.45 76.09 128.44"/><line class="cls-10" x1="249.57" y1="131.61" x2="247.65" y2="131.24"/><line class="cls-10" x1="208.53" y1="141.8" x2="212.37" y2="128.4"/><path class="cls-8" d="M289.16,146.2c2.84,1.34,4.82,2.3,6,2.88,1.52.74.39.2,1.61.8,0,0,2,1,3.52,1.9a5.59,5.59,0,0,1,1.1.9,2.25,2.25,0,0,1,.38.48,1.92,1.92,0,0,1,.23,1.17,1.83,1.83,0,0,1-.27.75,1.75,1.75,0,0,1-.72.62" transform="translate(-15.98 -1.72)"/><path class="cls-8" d="M227.47,147.48a5.64,5.64,0,0,1-2.25-.84,3.54,3.54,0,0,1-1-.89,3.42,3.42,0,0,1-.61-1.48,3.74,3.74,0,0,1,.11-1.58c1.23-4.58,1.88-6.86,2.36-8.27.39-1.14.91-2.78,1.42-4.81" transform="translate(-15.98 -1.72)"/><path class="cls-8" d="M94.63,130.19q.3,1,.58,2c.42,1.49.45,1.8,1,3.83a51.3,51.3,0,0,0,1.35,5,4.23,4.23,0,0,1,.25.81,5.09,5.09,0,0,1,.08,1.08,4.44,4.44,0,0,1-.08,1.08,3.57,3.57,0,0,1-.46,1.1,4.15,4.15,0,0,1-.48.6,4.75,4.75,0,0,1-.66.63,4.19,4.19,0,0,1-.83.5" transform="translate(-15.98 -1.72)"/><path d="M282.26,136.17c11.22,3.45,22,8.53,21.62,9.75-.54,1.67-21.89-4.6-22.5-2.75s19.67,9.38,19.12,11c-.32,1-7.63-1.59-18-3.13-13.61-2-45.47-4.17-52.87-4.62-1-.06-3.75-.19-4.37-1.75a2.83,2.83,0,0,1,.08-2.06,4.13,4.13,0,0,1,.42-.81,5.14,5.14,0,0,1,3.24-2,39.87,39.87,0,0,1,13.38-.88c6.85.92,7.37,2,12,2.25A31.57,31.57,0,0,0,264.46,140v-8l1.92.37A123.28,123.28,0,0,1,282.26,136.17Z" transform="translate(-15.98 -1.72)"/><path d="M264.46,132.05v8A292.8,292.8,0,0,0,92.9,129.25,296.63,296.63,0,0,0,57.8,140V118.59a293.2,293.2,0,0,1,206.66,0Z" transform="translate(-15.98 -1.72)"/><path d="M264.46,140a31.57,31.57,0,0,1-10.08,1.17c-4.63-.23-5.15-1.33-12-2.25a39.87,39.87,0,0,0-13.38.88,5.14,5.14,0,0,0-3.24,2,4.13,4.13,0,0,0-.42.81l3.84-13.4A293.35,293.35,0,0,1,264.46,140Z" transform="translate(-15.98 -1.72)"/><path d="M96.13,141.8a3,3,0,0,1,0,2.24,3.7,3.7,0,0,1-2.25,1.76,23.68,23.68,0,0,1-7.38,1.5,34.6,34.6,0,0,1-5,0c-6.29-.5-18.94.7-24.62,1.24-20.4,2-34.66,7-35.12,5.63-.56-1.66,19.59-9.2,19-11s-20.6,4.27-21.26,2.37c-.47-1.36,9.2-6.51,19.38-9.74a87,87,0,0,1,17.5-3.63H57.8V140a33.75,33.75,0,0,0,10.08,1.3c2.95-.09,3.35-.5,10.75-1.63a40,40,0,0,1,13-.25C93.32,139.71,95.46,140.22,96.13,141.8Z" transform="translate(-15.98 -1.72)"/><path d="M92.9,129.25l3.23,12.55c-.67-1.58-2.81-2.09-4.5-2.38a40,40,0,0,0-13,.25c-7.4,1.13-7.8,1.54-10.75,1.63A33.75,33.75,0,0,1,57.8,140,296.63,296.63,0,0,1,92.9,129.25Z" transform="translate(-15.98 -1.72)"/><path class="cls-7" d="M57.8,118.59a293.2,293.2,0,0,1,206.66,0" transform="translate(-15.98 -1.72)"/><path class="cls-7" d="M57.8,140a296.63,296.63,0,0,1,35.1-10.75A293.59,293.59,0,0,1,264.46,140" transform="translate(-15.98 -1.72)"/><path class="cls-7" d="M264.46,118.59V140a31.57,31.57,0,0,1-10.08,1.17c-4.63-.23-5.15-1.33-12-2.25a39.87,39.87,0,0,0-13.38.88,5.14,5.14,0,0,0-3.24,2,4.13,4.13,0,0,0-.42.81,2.83,2.83,0,0,0-.08,2.06c.62,1.56,3.39,1.69,4.37,1.75,7.4.45,39.26,2.61,52.87,4.62,10.37,1.54,17.68,4.1,18,3.13.55-1.62-19.72-9.18-19.12-11s22,4.42,22.5,2.75c.4-1.22-10.4-6.3-21.62-9.75a123.28,123.28,0,0,0-15.88-3.75" transform="translate(-15.98 -1.72)"/><path class="cls-7" d="M57.8,118.59V140a33.75,33.75,0,0,0,10.08,1.3c2.95-.09,3.35-.5,10.75-1.63a40,40,0,0,1,13-.25c1.69.29,3.83.8,4.5,2.38a3,3,0,0,1,0,2.24,3.7,3.7,0,0,1-2.25,1.76,23.68,23.68,0,0,1-7.38,1.5,34.6,34.6,0,0,1-5,0c-6.29-.5-18.94.7-24.62,1.24-20.4,2-34.66,7-35.12,5.63-.56-1.66,19.59-9.2,19-11s-20.6,4.27-21.26,2.37c-.47-1.36,9.2-6.51,19.38-9.74a87,87,0,0,1,17.5-3.63" transform="translate(-15.98 -1.72)"/><line class="cls-7" x1="40.4" y1="130.45" x2="41.82" y2="130.45"/><line class="cls-7" x1="80.15" y1="140.08" x2="76.92" y2="127.53"/><line class="cls-7" x1="250.4" y1="130.7" x2="248.48" y2="130.33"/><line class="cls-7" x1="209.36" y1="140.89" x2="213.2" y2="127.49"/><path class="cls-11" d="M55.63,133.41a1.91,1.91,0,0,0,1.62-.88,1.26,1.26,0,0,0-.45-1.71,1.28,1.28,0,0,0-1.71.45l.54-.35a1.25,1.25,0,0,0,0,2.5Z" transform="translate(-15.98 -1.72)"/><path class="cls-11" d="M267.15,131.42a1.58,1.58,0,0,0-1.81.67,1.26,1.26,0,0,0,.45,1.71,1.28,1.28,0,0,0,1.71-.45l.06-.09-.75.57h-.33a1.25,1.25,0,0,0,.66-2.41Z" transform="translate(-15.98 -1.72)"/><path class="cls-12" d="M57.3,118.66a.76.76,0,0,1,.06-.25A.69.69,0,0,1,58,118" transform="translate(-15.98 -1.72)"/><path class="cls-12" d="M264.32,118a.77.77,0,0,1,.25.06.68.68,0,0,1,.39.59" transform="translate(-15.98 -1.72)"/><path class="cls-13" d="M65,120.29c2.63-.89,3.95-1.32,6.59-2.15v1l.73-.23v1l.73-.23v8.62l-.73.23v1l-.73.23v1c-2.64.83-4,1.26-6.59,2.15Zm2.19,8.84c1.46-.48,2.2-.72,3.66-1.19v-6.7c-1.47.46-2.2.7-3.66,1.19Z" transform="translate(-15.98 -1.72)"/><path class="cls-13" d="M74.52,117.23c3.24-1,4.86-1.45,8.11-2.34v2.87c-2.37.65-3.55,1-5.91,1.68v1.91c2.06-.61,3.1-.9,5.17-1.47v2.87c-2.07.57-3.1.86-5.17,1.47v1.91c2.36-.69,3.54-1,5.91-1.68v2.87c-3.25.89-4.88,1.35-8.11,2.34Z" transform="translate(-15.98 -1.72)"/><path class="cls-13" d="M84.11,114.49c3.26-.87,4.89-1.28,8.16-2.06v2.87c-2.38.57-3.57.86-5.94,1.48v1.91c2.08-.54,3.12-.8,5.2-1.3v2.87c-2.08.5-3.12.76-5.2,1.3v4.79l-2.22.58Z" transform="translate(-15.98 -1.72)"/><path class="cls-13" d="M95.25,111.74c2.09-.47,3.13-.7,5.22-1.14v2.87l-1.49.32v6.7l1.49-.32V123c-2.09.44-3.14.66-5.22,1.14v-2.87l1.49-.33v-6.7l-1.49.33Z" transform="translate(-15.98 -1.72)"/><path class="cls-13" d="M103.47,110l2.25-.44v1.91l.75-.14v1l.75-.14v1L108,113v1l.75-.14v1l.75-.13v-5.74l2.25-.39v12.45l-2.25.39v-2.87l-.75.13v-1l-.75.14v-1l-.75.14v-1l-.75.14v-1l-.75.14V122l-2.25.44Z" transform="translate(-15.98 -1.72)"/><path class="cls-13" d="M113.21,108.24c3.31-.54,5-.79,8.28-1.24v2.87c-2.41.33-3.62.5-6,.88v1.91c2.11-.33,3.16-.48,5.27-.77v2.87c-2.11.29-3.16.45-5.27.77v1.91c2.41-.38,3.61-.55,6-.88v2.87c-3.32.45-5,.7-8.28,1.24Z" transform="translate(-15.98 -1.72)"/><path class="cls-13" d="M132.81,105.69c2.72-.26,4.08-.38,6.81-.58v1l.76-.05v1l.76-.05v8.62l-.76.05v1l-.76.05v1c-2.72.2-4.09.32-6.81.58Zm2.27,9.36,3.78-.31V108l-3.78.31Z" transform="translate(-15.98 -1.72)"/><path class="cls-13" d="M142.65,104.9c3.33-.21,5-.29,8.33-.41v2.87c-2.43.09-3.64.14-6.06.28v1.91c2.12-.12,3.18-.17,5.3-.25v2.87c-2.12.08-3.18.13-5.3.25v1.91c2.42-.14,3.64-.19,6.06-.28v2.87c-3.33.12-5,.2-8.33.41Z" transform="translate(-15.98 -1.72)"/><path class="cls-13" d="M152.5,106.35l.76,0v-1l.76,0v-1c2.43-.06,3.64-.08,6.07-.09v2.87c-2.12,0-3.18,0-5.31.07v1.91c1.82,0,2.73-.06,4.55-.07v1h.76v1h.76v3.83h-.76v1h-.76v1c-2.73,0-4.09,0-6.82.13V114c2.43-.07,3.64-.1,6.07-.12V112c-1.82,0-2.73,0-4.55.08v-1l-.76,0v-1l-.76,0Z" transform="translate(-15.98 -1.72)"/><path class="cls-13" d="M163.87,104.31c2.12,0,3.18,0,5.31.09v2.87l-1.52,0v6.7l1.52,0v2.87c-2.12-.05-3.18-.07-5.31-.09v-2.87l1.52,0v-6.7l-1.52,0Z" transform="translate(-15.98 -1.72)"/><path class="cls-13" d="M172.21,106.4l.76,0v-1l.76,0v-1c2.42.1,3.64.16,6.06.31v2.87c-2.12-.13-3.18-.18-5.3-.28v6.7l3.79.19v-1.91l-2.27-.12v-2.87c1.82.09,2.73.14,4.55.25v5.75l-.76,0v1l-.76,0v1c-2.12-.12-3.18-.18-5.3-.26v-1l-.76,0v-1l-.76,0Z" transform="translate(-15.98 -1.72)"/><path class="cls-13" d="M182.05,105l2.27.16v1.91l.76.06v1l.76.06v1l.76.06v1l.76.06v1l.76.07v-5.74l2.27.21v12.45l-2.27-.21v-2.87l-.76-.07v-1l-.76-.06v-1l-.76-.06v-1l-.76-.06v-1l-.76-.06v6.7l-2.27-.16Z" transform="translate(-15.98 -1.72)"/><path class="cls-13" d="M201.7,107c2.71.37,4.07.57,6.77,1v1l.75.12v1l.75.12v4.79l-.75-.12v1l-1.5-.24v1l.75.12v1l.75.12v1l.75.12v1.91l-2.26-.36v-1l-.75-.12v-1l-.75-.11v-1l-.75-.11v-1l-1.51-.22v3.83l-2.26-.31Zm2.26,6.06,3.76.56v-2.87l-3.76-.56Z" transform="translate(-15.98 -1.72)"/><path class="cls-13" d="M211.48,108.49c3.3.56,5,.86,8.25,1.51v2.87c-2.39-.47-3.59-.7-6-1.12v1.91c2.1.37,3.15.57,5.25,1v2.87c-2.1-.41-3.14-.6-5.25-1v1.91c2.4.42,3.6.65,6,1.12v2.87c-3.29-.65-4.94-1-8.25-1.51Z" transform="translate(-15.98 -1.72)"/><path class="cls-13" d="M221.22,110.3c3.29.67,4.93,1,8.21,1.79V115c-2.38-.55-3.58-.82-6-1.32v1.91c2.09.44,3.14.67,5.22,1.15v2.87c-2.09-.48-3.13-.71-5.22-1.15v4.79l-2.24-.46Z" transform="translate(-15.98 -1.72)"/><path class="cls-13" d="M232.4,112.79c2.08.51,3.12.77,5.19,1.31V117l-1.48-.38v6.7l1.48.38v2.87c-2.07-.54-3.11-.81-5.19-1.31v-2.87l1.49.36V116l-1.49-.36Z" transform="translate(-15.98 -1.72)"/><path class="cls-13" d="M240.55,114.89l2.22.61v1.91l.74.21v1l.74.21v1l.74.21v1l.74.21v1l.74.22v-5.74l2.21.66v12.45l-2.21-.66v-2.87l-.74-.22v-1l-.74-.21v-1l-.74-.21v-1l-.74-.21v-1l-.74-.21V128l-2.22-.61Z" transform="translate(-15.98 -1.72)"/><path class="cls-13" d="M250.14,117.68c3.23,1,4.84,1.52,8.06,2.61v2.87c-2.34-.79-3.51-1.18-5.85-1.92v1.91c2.05.65,3.08,1,5.12,1.67v2.87c-2-.69-3.07-1-5.12-1.67v1.91c2.35.74,3.52,1.13,5.85,1.92v2.87c-3.21-1.09-4.82-1.61-8.06-2.61Z" transform="translate(-15.98 -1.72)"/></g><g id="Layer_8" data-name="Layer 8"><image width="700" height="200" transform="translate(70.96 57.65) scale(0.21)" xlink:href="cpwd_assabet.png"/></g></svg>